<svg width="18" height="18" viewBox="0 0 18 18" fill="none" xmlns="http://www.w3.org/2000/svg">
<path d="M15.6706 1.05884H14.0824V2.64707C14.0824 2.96472 13.8177 3.17648 13.5529 3.17648C13.2882 3.17648 13.0235 2.96472 13.0235 2.64707V1.05884H4.55295V2.64707C4.55295 2.96472 4.28824 3.17648 4.02354 3.17648C3.75883 3.17648 3.49412 2.96472 3.49412 2.64707V1.05884H1.90589C1.11177 1.05884 0.529419 1.74707 0.529419 2.64707V4.55296H17.4706V2.64707C17.4706 1.74707 16.5177 1.05884 15.6706 1.05884ZM0.529419 5.66472V15.353C0.529419 16.3059 1.11177 16.9412 1.95883 16.9412H15.7235C16.5706 16.9412 17.5235 16.253 17.5235 15.353V5.66472H0.529419ZM5.24118 14.5588H3.9706C3.75883 14.5588 3.54707 14.4 3.54707 14.1353V12.8118C3.54707 12.6 3.70589 12.3882 3.9706 12.3882H5.29413C5.50589 12.3882 5.71765 12.5471 5.71765 12.8118V14.1353C5.66471 14.4 5.50589 14.5588 5.24118 14.5588ZM5.24118 9.79413H3.9706C3.75883 9.79413 3.54707 9.63531 3.54707 9.3706V8.04707C3.54707 7.83531 3.70589 7.62354 3.9706 7.62354H5.29413C5.50589 7.62354 5.71765 7.78237 5.71765 8.04707V9.3706C5.66471 9.63531 5.50589 9.79413 5.24118 9.79413ZM9.47648 14.5588H8.15295C7.94118 14.5588 7.72942 14.4 7.72942 14.1353V12.8118C7.72942 12.6 7.88824 12.3882 8.15295 12.3882H9.47648C9.68824 12.3882 9.90001 12.5471 9.90001 12.8118V14.1353C9.90001 14.4 9.74118 14.5588 9.47648 14.5588ZM9.47648 9.79413H8.15295C7.94118 9.79413 7.72942 9.63531 7.72942 9.3706V8.04707C7.72942 7.83531 7.88824 7.62354 8.15295 7.62354H9.47648C9.68824 7.62354 9.90001 7.78237 9.90001 8.04707V9.3706C9.90001 9.63531 9.74118 9.79413 9.47648 9.79413ZM13.7118 14.5588H12.3882C12.1765 14.5588 11.9647 14.4 11.9647 14.1353V12.8118C11.9647 12.6 12.1235 12.3882 12.3882 12.3882H13.7118C13.9235 12.3882 14.1353 12.5471 14.1353 12.8118V14.1353C14.1353 14.4 13.9765 14.5588 13.7118 14.5588ZM13.7118 9.79413H12.3882C12.1765 9.79413 11.9647 9.63531 11.9647 9.3706V8.04707C11.9647 7.83531 12.1235 7.62354 12.3882 7.62354H13.7118C13.9235 7.62354 14.1353 7.78237 14.1353 8.04707V9.3706C14.1353 9.63531 13.9765 9.79413 13.7118 9.79413Z" fill="white"/>
</svg>
