<svg width="18" height="18" viewBox="0 0 18 18" fill="none" xmlns="http://www.w3.org/2000/svg">
<g clip-path="url(#clip0_332_3149)">
<path d="M15.1237 14.7273H2.85093C2.17302 14.7273 1.62366 15.2768 1.62366 15.9546C1.62366 17.0843 2.53932 18 3.66906 18H14.3054C15.4351 18 16.3509 17.0843 16.3509 15.9546C16.3509 15.2768 15.8014 14.7273 15.1237 14.7273Z" fill="white"/>
<path d="M5.50676 7.33607C5.51904 6.44228 6.24849 5.72498 7.14227 5.72722H10.8322C11.7356 5.72827 12.4675 6.46026 12.4686 7.36364L12.8948 13.9091H14.6933L14.3053 6.54551C14.3038 5.19044 13.2058 4.09246 11.8508 4.09096H11.4418V3.27268H12.2599C12.7116 3.27223 13.0776 2.90623 13.078 2.45455V1.63641C13.077 0.733038 12.345 0.0010487 11.4418 0H6.53268C5.62931 0.0010487 4.89732 0.733038 4.89627 1.63641V2.45455C4.89672 2.90623 5.26271 3.27223 5.7144 3.27268H6.53268V4.09096H6.12354C4.77597 4.08961 3.67993 5.17636 3.66974 6.52393L3.28113 13.9091H5.05971L5.50676 7.33607ZM7.35081 3.27268H10.6235V4.09096H7.35081V3.27268Z" fill="white"/>
<path d="M10.8322 6.54553H7.14233C6.69065 6.54598 6.32465 6.91198 6.3242 7.36366L5.88 13.9092H12.0749L11.6511 7.39003C11.6561 7.16906 11.5722 6.95527 11.4183 6.79647C11.2645 6.63782 11.0534 6.54733 10.8322 6.54553Z" fill="white"/>
</g>
<defs>
<clipPath id="clip0_332_3149">
<rect width="18" height="18" fill="white"/>
</clipPath>
</defs>
</svg>
